<?xml version="1.0" standalone="no"?>
<!DOCTYPE svg PUBLIC "-//W3C//DTD SVG 20010904//EN"
 "http://www.w3.org/TR/2001/REC-SVG-20010904/DTD/svg10.dtd">
<svg version="1.0" xmlns="http://www.w3.org/2000/svg"
 width="1280.000000pt" height="1184.000000pt" viewBox="0 0 1280.000000 1184.000000"
 preserveAspectRatio="xMidYMid meet">
<metadata>
Created by potrace 1.15, written by Peter Selinger 2001-2017
</metadata>
<g transform="translate(0.000000,1184.000000) scale(0.100000,-0.100000)"
fill="#000000" stroke="none">
<path d="M5165 11834 c-410 -26 -823 -81 -933 -125 -147 -59 -269 -133 -311
-189 -65 -89 -24 -178 113 -247 103 -51 154 -92 311 -243 150 -145 209 -188
295 -216 l54 -18 70 38 c294 161 673 273 1032 305 172 16 228 -3 402 -136 176
-135 197 -139 641 -135 363 3 451 -3 551 -41 78 -29 131 -70 202 -156 116
-142 138 -157 303 -207 81 -25 96 -34 145 -83 75 -75 142 -173 347 -505 130
-212 173 -289 173 -313 0 -18 -13 -74 -29 -125 -38 -123 -42 -146 -27 -189 28
-80 99 -145 356 -325 85 -60 188 -140 228 -178 40 -38 74 -67 77 -64 2 2 18
34 35 71 157 346 100 821 -157 1307 -91 173 -158 268 -267 376 -168 167 -323
273 -791 544 -126 73 -338 199 -470 280 -132 81 -291 175 -353 209 -483 267
-887 357 -1627 365 -170 2 -337 2 -370 0z"/>
<path d="M5605 10963 c-78 -9 -251 -48 -351 -78 -120 -37 -354 -132 -354 -145
0 -4 35 -11 78 -15 116 -10 144 -20 231 -86 93 -70 136 -87 421 -160 232 -60
362 -102 401 -130 16 -11 42 -46 59 -78 44 -83 83 -116 270 -231 177 -109 242
-140 348 -164 37 -9 117 -27 177 -41 223 -51 285 -102 341 -282 42 -136 96
-246 168 -344 30 -41 53 -75 53 -75 -1 -1 -51 9 -112 21 -228 46 -373 59 -670
59 -367 1 -635 -32 -964 -115 -609 -154 -1098 -416 -1480 -792 -415 -409 -688
-893 -916 -1625 -5 -15 43 4 135 55 226 123 370 263 463 448 19 39 60 142 92
230 91 252 143 344 263 457 171 161 402 281 929 483 l202 78 138 104 c76 58
161 116 188 131 71 36 173 40 340 12 339 -56 584 -31 922 94 333 124 450 126
618 6 355 -251 458 -299 615 -286 90 7 187 31 257 62 l52 22 49 -91 c358 -666
579 -1315 643 -1892 22 -199 11 -813 -21 -1145 -47 -484 -198 -918 -452 -1298
-166 -248 -442 -550 -677 -741 -455 -369 -1067 -632 -1511 -648 -360 -14 -699
88 -1110 335 -584 350 -854 662 -940 1083 -104 510 23 998 379 1457 92 118
309 343 426 440 535 447 1155 562 1835 340 427 -139 702 -436 784 -848 108
-540 -160 -1102 -677 -1418 -286 -176 -542 -242 -817 -212 -374 40 -606 143
-734 323 -87 125 -98 218 -37 342 145 294 600 588 1176 760 50 15 97 29 105
32 25 8 -46 32 -144 50 -276 48 -673 -67 -1016 -295 -137 -92 -227 -170 -300
-261 -228 -286 -212 -570 50 -902 139 -177 308 -278 555 -331 96 -20 430 -17
535 5 333 72 849 309 1133 521 276 206 466 447 522 661 20 78 20 391 0 532
-84 593 -421 1063 -951 1326 -275 137 -469 180 -814 180 -559 0 -1046 -157
-1480 -479 -124 -92 -351 -316 -470 -464 -228 -285 -378 -584 -441 -880 -19
-86 -23 -136 -23 -280 0 -215 16 -300 108 -575 217 -646 500 -1052 921 -1320
307 -195 655 -324 1032 -382 155 -24 546 -23 708 0 553 82 982 292 1457 714
324 288 604 655 806 1058 229 456 341 790 417 1245 43 257 56 310 146 594 121
382 146 510 136 706 -12 240 -87 422 -348 845 -163 262 -254 435 -293 553
l-28 82 -156 104 c-86 57 -207 132 -268 167 l-111 63 28 53 c55 105 48 169
-29 254 -34 38 -56 52 -97 64 -63 19 -102 57 -163 161 -53 89 -57 108 -38 181
32 122 16 246 -49 380 -49 99 -110 152 -255 221 -63 29 -157 74 -208 98 -51
24 -114 58 -140 76 -124 85 -227 216 -279 354 -26 67 -31 75 -68 90 -124 50
-300 56 -584 19 -106 -14 -224 -25 -263 -25 -199 0 -360 96 -418 249 -26 71
-70 115 -138 141 -42 16 -74 20 -170 19 -64 -1 -130 -4 -147 -6z"/>
<path d="M11735 9444 c-11 -2 -51 -12 -90 -20 -105 -24 -141 -47 -245 -153
-52 -53 -110 -108 -128 -121 l-33 -25 53 -43 c121 -97 262 -141 395 -122 182
26 397 135 527 268 l48 50 -103 58 c-136 76 -223 106 -324 110 -44 1 -89 1
-100 -2z m80 -198 c70 -29 28 -76 -66 -76 -36 0 -39 2 -39 29 0 20 8 35 22 45
28 20 39 20 83 2z"/>
<path d="M12300 9135 c-69 -53 -152 -115 -185 -139 -176 -129 -416 -196 -698
-196 -171 0 -313 20 -466 66 -171 52 -162 51 -226 9 -67 -45 -131 -131 -180
-242 -19 -43 -46 -100 -60 -127 l-24 -48 24 -37 c33 -54 125 -240 170 -346 74
-174 117 -223 259 -296 236 -122 283 -157 375 -287 117 -165 144 -181 310
-191 107 -6 120 -5 161 15 25 12 62 37 82 56 37 33 37 33 27 83 -18 92 -39
309 -39 410 0 428 159 719 462 841 115 47 276 85 383 90 119 5 117 2 119 144
1 80 -2 101 -21 135 -43 80 -103 118 -220 141 -120 23 -116 24 -253 -81z"/>
<path d="M12518 8655 c-111 -30 -274 -127 -333 -197 -71 -84 -101 -216 -84
-368 10 -86 41 -217 66 -278 l14 -34 52 45 c29 24 104 78 167 119 135 88 169
123 223 236 37 77 41 92 47 200 5 73 16 141 29 182 11 36 21 70 21 77 0 30
-120 41 -202 18z m-62 -276 c36 -30 -1 -91 -50 -82 -54 11 -85 70 -48 93 20
12 78 6 98 -11z"/>
<path d="M7025 8574 c-11 -2 -45 -9 -75 -15 -30 -6 -161 -46 -290 -89 -129
-43 -266 -83 -305 -88 -72 -9 -173 -2 -273 19 -89 19 -247 17 -312 -5 -80 -27
-205 -91 -368 -190 -243 -148 -282 -164 -577 -247 -420 -117 -509 -198 -674
-612 -61 -152 -91 -213 -178 -364 -123 -213 -224 -466 -284 -708 -30 -121 -71
-346 -65 -352 2 -2 26 36 54 84 76 132 240 377 343 515 299 398 649 744 989
979 537 373 1125 549 1665 500 1027 -94 1871 -761 2325 -1838 24 -57 45 -101
47 -99 9 9 -19 439 -38 586 -93 732 -347 1256 -684 1410 -88 41 -194 73 -372
115 -95 23 -181 49 -215 67 -31 17 -116 84 -190 149 -88 79 -155 131 -197 152
-60 29 -72 31 -185 34 -67 1 -130 0 -141 -3z"/>
<path d="M10050 8239 c-218 -106 -195 -101 -452 -108 -125 -4 -230 -10 -234
-13 -10 -10 50 -108 125 -205 38 -49 132 -155 211 -238 313 -331 361 -418 410
-752 28 -189 38 -220 136 -413 90 -179 104 -231 104 -394 0 -145 35 -204 146
-245 49 -19 74 -21 192 -19 l136 3 8 30 c5 17 6 123 2 237 l-6 207 25 45 c30
55 215 314 292 411 31 39 89 107 130 152 42 45 71 85 65 88 -19 11 -47 79 -60
140 -31 149 -46 164 -394 389 -196 127 -248 187 -371 425 -50 96 -69 122 -124
170 -35 31 -89 80 -119 109 -30 28 -60 52 -66 52 -6 0 -76 -32 -156 -71z"/>
<path d="M6397 7770 c-224 -24 -532 -102 -763 -195 -498 -200 -899 -509 -1363
-1050 -484 -564 -655 -874 -1171 -2125 -79 -190 -156 -371 -172 -403 -38 -76
-55 -147 -68 -291 -7 -70 -20 -143 -32 -175 -54 -146 -169 -269 -398 -426
-109 -75 -134 -98 -155 -145 -35 -77 17 -132 123 -132 31 0 117 11 190 26 265
52 440 58 555 18 73 -26 151 -79 240 -162 l72 -68 -37 -16 c-56 -24 -112 -34
-253 -45 -247 -20 -322 -44 -390 -123 -80 -93 -119 -189 -135 -332 -27 -228
-32 -262 -46 -294 l-14 -34 53 6 c77 10 193 42 597 164 351 107 613 192 652
213 42 23 11 -16 -106 -128 -252 -244 -566 -449 -985 -643 -144 -67 -417 -180
-533 -221 -35 -12 -37 -15 -43 -68 -15 -150 -36 -217 -102 -335 -19 -32 -32
-61 -29 -63 16 -16 903 423 1136 563 165 99 394 250 553 366 59 43 110 78 113
78 22 0 -69 -236 -137 -355 -96 -167 -208 -302 -368 -442 -190 -166 -345 -244
-836 -418 -207 -73 -388 -147 -497 -202 -100 -49 -102 -54 -68 -146 24 -64 69
-113 130 -141 39 -18 63 -21 175 -20 146 1 211 17 391 94 299 128 729 409
1014 664 412 368 685 636 887 873 58 67 107 123 108 123 0 0 62 -25 136 -56
514 -213 1010 -358 1459 -428 242 -38 397 -49 665 -50 352 0 575 26 886 105
376 94 1044 376 1319 557 362 238 685 567 955 972 193 291 327 570 451 938
l48 143 23 -38 c51 -84 164 -323 192 -409 44 -131 54 -217 40 -338 -18 -152
-7 -291 30 -410 40 -126 51 -218 58 -497 7 -258 -3 -397 -48 -647 -16 -92 -32
-205 -35 -252 -7 -88 7 -207 29 -261 l12 -31 90 46 c233 120 330 240 342 426
4 59 0 87 -16 134 -48 136 -29 182 221 514 195 259 276 407 299 548 21 132
-23 257 -183 517 -101 163 -136 274 -123 391 4 34 21 122 38 196 44 191 43
316 -1 450 -17 52 -52 130 -76 174 -106 184 -212 295 -547 568 l-107 87 6 282
5 282 -39 -30 c-21 -17 -113 -73 -204 -123 -302 -169 -360 -234 -360 -407 0
-126 24 -198 123 -362 88 -147 122 -294 97 -414 -23 -112 -87 -155 -340 -232
-188 -56 -237 -82 -316 -160 -126 -127 -127 -232 -3 -675 39 -140 8 -355 -62
-435 -65 -73 -205 -115 -465 -138 -239 -22 -259 -34 -446 -274 -237 -304 -457
-473 -697 -534 -182 -47 -352 -45 -816 7 -262 30 -552 37 -674 16 -40 -7 -114
-28 -162 -47 -49 -19 -130 -51 -179 -70 -132 -52 -240 -65 -537 -65 -344 0
-390 10 -593 127 l-65 38 -190 1 c-175 1 -195 3 -256 26 -83 31 -177 83 -258
145 -59 44 -74 64 -193 261 -381 631 -538 947 -622 1255 -55 199 -69 321 -63
522 8 246 34 353 162 660 312 749 587 1198 965 1575 595 593 1002 835 1479
881 116 11 365 -1 541 -27 695 -101 1252 -418 1571 -893 184 -273 252 -497
266 -871 19 -528 -140 -929 -514 -1291 -284 -275 -672 -484 -1138 -613 -520
-143 -986 -103 -1360 119 -273 161 -491 430 -541 666 -19 91 -8 195 37 335
138 430 461 790 916 1018 215 108 408 157 623 157 144 0 266 -19 395 -62 113
-38 184 -80 245 -146 78 -85 88 -165 36 -278 -90 -196 -422 -388 -1016 -586
l-175 -58 123 -1 c349 -1 746 81 992 204 131 66 203 118 296 211 64 64 91 100
125 170 39 79 44 98 47 169 13 294 -249 616 -606 746 -356 130 -729 96 -1131
-102 -130 -65 -338 -198 -456 -292 -359 -288 -658 -687 -736 -982 -27 -102
-37 -318 -20 -434 70 -473 401 -851 931 -1060 255 -100 446 -135 740 -134 225
1 359 18 580 74 341 86 782 274 1038 443 511 337 804 793 882 1372 20 152 24
468 7 625 -61 571 -280 1029 -673 1410 -356 345 -788 569 -1248 646 -111 18
-400 26 -519 14z"/>
<path d="M3210 6486 c0 -1 -11 -48 -25 -103 -13 -55 -33 -154 -44 -219 -33
-201 -44 -228 -121 -297 -106 -95 -213 -122 -386 -98 -319 44 -819 118 -1024
151 -420 68 -695 85 -970 59 -478 -44 -700 -228 -626 -519 17 -68 81 -213 100
-230 8 -5 51 2 121 21 384 104 712 164 1034 189 254 19 483 9 716 -32 115 -20
312 -70 343 -87 9 -5 -39 -18 -129 -35 -378 -71 -844 -179 -1169 -271 -141
-40 -443 -136 -514 -164 l-28 -11 24 -33 c13 -17 47 -70 75 -117 55 -91 84
-123 149 -163 l40 -25 105 59 c279 157 575 261 869 306 136 20 442 23 565 5
114 -17 287 -54 280 -60 -3 -3 -77 -20 -165 -38 -357 -73 -731 -198 -1132
-379 -71 -31 -128 -60 -128 -64 0 -3 19 -16 42 -29 24 -12 99 -72 168 -132 76
-67 150 -123 190 -143 57 -28 76 -32 164 -35 110 -4 183 7 297 44 91 29 139
59 238 148 93 83 131 101 278 132 268 56 429 184 554 439 27 55 92 228 144
385 151 447 188 610 189 825 0 72 -6 157 -13 190 -20 95 -83 217 -142 280 -44
47 -69 65 -69 51z"/>
<path d="M9997 6454 c-4 -4 -7 -19 -7 -34 0 -38 -54 -359 -91 -540 -309 -1522
-1009 -2694 -1945 -3254 -721 -431 -1852 -472 -2683 -97 -546 246 -949 664
-1175 1216 -87 213 -160 498 -187 729 -7 55 -16 105 -20 110 -18 21 -104 -206
-129 -339 -94 -519 170 -1217 625 -1654 117 -113 205 -154 465 -221 212 -55
274 -80 459 -189 257 -152 340 -183 541 -201 322 -30 643 11 1255 162 331 82
371 85 563 49 242 -45 350 -36 488 38 89 48 150 93 308 225 172 145 220 179
411 300 345 219 460 326 559 523 47 95 74 175 140 428 82 313 126 429 188 496
18 20 83 77 144 127 153 125 181 170 209 328 19 109 19 258 0 439 -30 287 -44
488 -54 775 -12 329 -42 606 -64 584z"/>
<path d="M11296 5368 c4 -7 31 -49 59 -93 165 -257 307 -537 433 -853 83 -207
90 -236 107 -474 17 -232 25 -274 100 -513 80 -256 93 -302 110 -399 28 -165
19 -257 -49 -478 -24 -79 -51 -169 -60 -201 -22 -77 -64 -121 -201 -211 -69
-46 -121 -89 -137 -113 -65 -93 -92 -319 -54 -438 23 -73 20 -114 -12 -166
-50 -79 -217 -210 -544 -429 l-157 -105 0 -170 c-1 -241 10 -274 131 -416 40
-47 88 -108 107 -136 38 -56 76 -83 115 -83 34 0 112 72 158 143 18 29 91 120
162 202 179 209 330 413 438 595 50 85 133 225 184 310 246 414 285 553 329
1170 9 118 24 294 35 390 10 96 24 227 31 290 7 63 12 216 12 340 0 351 -31
506 -148 735 -80 157 -302 514 -405 650 -159 210 -339 336 -605 423 -123 41
-149 46 -139 30z"/>
<path d="M7622 5112 c-214 -289 -431 -482 -667 -597 -107 -52 -186 -78 -320
-107 -170 -36 -460 -28 -679 19 l-28 6 7 -44 c16 -99 67 -162 170 -210 88 -42
182 -59 321 -59 363 0 738 158 981 413 119 125 197 257 247 417 24 73 59 260
52 268 -2 1 -39 -47 -84 -106z"/>
</g>
</svg>
