<?xml version="1.0" standalone="no"?>
<!DOCTYPE svg PUBLIC "-//W3C//DTD SVG 20010904//EN"
 "http://www.w3.org/TR/2001/REC-SVG-20010904/DTD/svg10.dtd">
<svg version="1.0" xmlns="http://www.w3.org/2000/svg"
 width="1280.000000pt" height="640.000000pt" viewBox="0 0 1280.000000 640.000000"
 preserveAspectRatio="xMidYMid meet">
<metadata>
Created by potrace 1.15, written by Peter Selinger 2001-2017
</metadata>
<g transform="translate(0.000000,640.000000) scale(0.100000,-0.100000)"
fill="#000000" stroke="none">
<path d="M11537 6375 c-242 -41 -455 -158 -602 -331 -90 -106 -172 -238 -308
-496 -164 -311 -235 -419 -356 -539 -155 -154 -315 -231 -543 -263 l-38 -5 0
150 c0 228 -9 238 -230 250 -325 18 -860 87 -1515 194 -915 150 -1620 245
-2040 276 -239 17 -605 15 -752 -5 -639 -86 -1259 -453 -1938 -1147 -287 -294
-551 -601 -1090 -1269 -524 -650 -718 -874 -985 -1140 -380 -379 -674 -577
-982 -662 -124 -34 -174 -91 -154 -175 12 -44 66 -90 117 -97 24 -4 187 -26
363 -51 175 -24 320 -46 323 -48 2 -3 -144 -223 -326 -490 -182 -266 -333
-492 -337 -501 -6 -15 42 -16 573 -16 l580 0 209 440 c184 389 211 439 229
435 11 -3 225 -36 476 -75 765 -117 913 -140 918 -145 2 -3 -57 -149 -132
-324 -75 -176 -137 -322 -137 -325 0 -3 263 -6 585 -6 l585 0 0 271 0 271 23
-5 c12 -3 112 -14 222 -24 251 -22 1048 -26 1270 -5 224 21 426 47 596 77 46
8 92 15 102 15 16 0 17 -21 17 -300 l0 -300 513 0 c283 0 516 2 519 5 3 3 1
27 -4 53 -5 26 -38 207 -74 402 -36 195 -67 364 -70 375 -4 18 9 26 103 64
128 52 404 188 529 262 254 149 495 332 697 528 121 118 128 123 143 105 142
-180 291 -467 379 -730 98 -293 174 -724 175 -991 l0 -73 605 0 605 0 0 45 c0
78 -30 266 -65 400 -121 471 -401 999 -841 1585 -73 96 -181 234 -242 306 -60
73 -113 137 -117 143 -3 7 33 91 82 189 131 259 234 531 316 832 l23 84 84 32
c402 148 780 380 1550 948 545 402 616 438 988 506 349 63 429 90 519 173 83
77 123 181 123 325 0 235 -116 456 -316 598 -129 92 -327 168 -519 199 -109
18 -321 18 -428 0z"/>
</g>
</svg>
