<?xml version="1.0" standalone="no"?>
<!DOCTYPE svg PUBLIC "-//W3C//DTD SVG 20010904//EN"
 "http://www.w3.org/TR/2001/REC-SVG-20010904/DTD/svg10.dtd">
<svg version="1.0" xmlns="http://www.w3.org/2000/svg"
 width="1280.000000pt" height="640.000000pt" viewBox="0 0 1280.000000 640.000000"
 preserveAspectRatio="xMidYMid meet">
<metadata>
Created by potrace 1.15, written by Peter Selinger 2001-2017
</metadata>
<g transform="translate(0.000000,640.000000) scale(0.100000,-0.100000)"
fill="#000000" stroke="none">
<path d="M5545 5775 c-273 -28 -748 -113 -971 -175 -70 -20 -127 -43 -159 -64
-103 -70 -335 -173 -441 -196 -63 -14 -145 -63 -341 -203 -87 -62 -192 -136
-233 -164 -115 -77 -182 -157 -258 -308 -51 -103 -111 -181 -210 -276 -90 -86
-124 -145 -147 -259 -30 -145 -93 -230 -172 -230 -19 0 -44 -5 -55 -11 -20
-11 -20 -16 -12 -128 14 -188 12 -220 -11 -236 -39 -27 -44 -35 -50 -72 -17
-109 -34 -143 -116 -224 -54 -53 -79 -86 -79 -102 0 -54 91 -157 139 -157 32
0 35 -24 12 -82 -11 -29 -23 -69 -26 -89 -9 -59 -35 -74 -124 -73 -96 2 -173
30 -329 121 -208 121 -326 160 -452 150 -134 -11 -242 -63 -279 -135 -34 -67
-91 -107 -226 -163 -155 -63 -160 -71 -160 -264 1 -122 4 -147 23 -197 42
-105 99 -166 144 -155 13 4 58 35 100 71 41 35 89 71 107 80 40 21 71 13 71
-18 0 -28 -13 -39 -63 -56 -45 -14 -97 -79 -97 -120 l0 -27 217 -6 c230 -7
396 -23 578 -57 163 -29 237 -27 386 15 162 45 266 62 478 80 237 21 249 23
290 60 20 18 88 58 151 91 63 32 183 103 265 158 303 200 319 199 336 -26 11
-156 17 -176 74 -291 41 -82 47 -101 46 -157 0 -53 -5 -71 -31 -113 -26 -42
-32 -61 -32 -111 0 -92 36 -166 81 -166 6 0 36 23 66 50 58 53 79 59 111 35
27 -20 74 -18 128 6 27 12 88 24 144 30 72 8 112 17 157 39 66 32 137 49 325
80 134 22 233 52 265 80 11 10 30 23 42 29 31 16 224 31 403 31 217 0 400 23
400 50 0 14 -91 31 -241 44 l-144 13 165 2 c226 2 428 18 498 41 98 31 244 58
573 105 173 25 339 50 369 57 48 10 52 12 30 19 -14 4 -71 7 -127 8 -56 1
-104 5 -107 9 -3 5 37 14 88 21 184 26 128 32 -244 28 -363 -4 -423 -10 -449
-41 -19 -23 -2 -45 32 -43 44 3 47 -15 6 -34 -104 -50 -449 -97 -914 -124
-323 -19 -416 -31 -480 -60 -64 -29 -123 -39 -190 -30 -65 8 -95 34 -112 97
-8 28 -30 64 -58 96 -44 49 -45 51 -25 62 11 6 140 24 287 41 147 17 275 35
283 40 32 20 -467 -11 -593 -37 -54 -11 -71 -11 -87 -1 -23 14 -84 152 -76
172 8 23 127 28 405 19 572 -19 717 -14 2075 81 357 25 659 45 671 45 18 0 25
-13 49 -93 69 -232 121 -281 358 -332 291 -64 333 -79 397 -145 27 -28 50 -68
72 -123 44 -115 64 -151 100 -181 41 -35 61 -30 72 17 11 47 32 61 132 86 150
38 320 53 610 52 l270 -1 297 47 c164 26 290 51 280 54 -9 3 -88 14 -174 25
-86 10 -154 22 -152 26 7 12 248 10 324 -3 36 -5 75 -17 88 -25 39 -25 157
-33 477 -33 332 1 352 12 40 23 -246 8 -415 35 -415 66 0 20 89 51 177 61 79
9 264 7 453 -6 58 -4 61 -3 30 6 -19 6 -42 13 -50 16 -10 4 -5 10 18 21 17 9
32 19 32 24 0 4 -134 5 -297 2 -236 -4 -307 -3 -342 8 -56 17 -61 32 -20 53
72 38 401 37 675 -1 116 -16 174 -14 174 6 0 22 -190 50 -545 80 -132 11 -253
24 -270 28 l-30 9 25 6 c14 3 51 9 83 12 54 7 90 25 50 25 -10 0 -90 5 -178
10 -187 11 -599 14 -638 5 -68 -17 8 -84 96 -85 44 0 97 -24 97 -45 0 -24 18
-26 58 -6 34 17 248 91 264 91 4 0 4 -18 1 -39 -5 -33 -2 -41 17 -51 32 -17 9
-30 -55 -30 -63 0 -101 -19 -97 -47 4 -29 -37 -59 -99 -72 -67 -15 -207 -14
-288 1 l-66 12 60 7 c33 4 92 7 131 8 88 1 164 11 164 21 0 13 -77 39 -134 46
-29 4 -84 1 -121 -5 -74 -13 -90 -9 -57 15 36 25 26 34 -37 34 -157 0 -411
-56 -411 -90 0 -6 11 -5 28 1 65 26 245 7 274 -28 10 -12 9 -18 -7 -29 -32
-23 -84 -34 -215 -44 -190 -14 -182 -11 -254 -92 -24 -27 -83 -45 -111 -34
-27 10 -16 51 36 137 127 208 183 249 392 285 51 9 93 17 94 18 2 1 -70 2
-160 2 -163 -1 -223 10 -215 37 2 6 31 21 64 32 l59 20 -100 6 c-115 7 -139
14 -129 38 18 44 15 46 -121 53 -144 8 -254 28 -322 58 -86 38 -40 55 422 160
530 121 805 202 805 239 0 17 -66 66 -174 131 -101 61 -216 159 -216 185 0 33
-63 106 -128 148 -77 50 -107 91 -142 192 -26 77 -57 127 -124 204 -69 80 -94
133 -106 227 -6 44 -21 98 -37 132 -34 69 -103 142 -136 142 -37 0 -66 27 -72
68 -15 93 -61 156 -282 384 -113 117 -169 184 -187 220 -37 78 -118 122 -250
135 -82 8 -125 31 -188 103 -70 80 -100 98 -189 110 -57 7 -96 21 -174 61
-166 85 -229 104 -560 169 -137 27 -365 73 -505 104 -140 30 -293 60 -340 66
-111 13 -362 11 -525 -5z m332 -149 c38 -8 148 -22 244 -30 96 -9 201 -23 234
-32 70 -18 200 -84 188 -95 -4 -4 -43 -15 -86 -24 -89 -20 -132 -15 -194 21
-82 47 -136 23 -135 -61 1 -37 -4 -52 -23 -71 -38 -38 -88 -33 -198 22 -133
67 -213 96 -266 94 -70 -3 -71 -2 -86 33 -32 78 -31 82 26 106 55 24 155 49
201 50 15 1 58 -6 95 -13z m-632 -98 c7 -18 23 -80 35 -137 25 -117 23 -189
-7 -229 -46 -62 -246 -199 -423 -289 -120 -61 -191 -77 -320 -70 -175 9 -214
38 -113 87 65 31 96 61 134 126 42 74 145 139 252 158 61 11 95 -1 122 -44 27
-42 58 -55 81 -33 24 24 15 43 -70 149 -11 13 -17 27 -13 30 3 3 35 1 70 -5
76 -13 137 -14 137 -2 0 5 -9 29 -20 53 -28 65 -36 145 -17 190 14 33 20 37
59 41 24 2 51 4 61 5 12 1 23 -9 32 -30z m1488 -49 c30 -37 18 -139 -18 -139
-16 0 -77 70 -99 113 -14 29 -14 33 2 45 24 19 92 7 115 -19z m-2069 -55 c29
-11 18 -50 -25 -89 -42 -38 -180 -109 -234 -121 -30 -6 -30 -6 14 35 32 31 42
46 38 62 -8 30 1 46 40 70 59 36 134 56 167 43z m220 -26 c16 -26 -4 -53 -40
-53 -25 0 -30 4 -32 29 -6 46 47 63 72 24z m2134 -57 c4 -34 -24 -131 -38
-131 -12 0 -22 84 -14 116 14 61 47 70 52 15z m228 14 c27 -13 72 -45 101 -70
81 -72 183 -235 145 -235 -4 0 -29 20 -55 45 -51 47 -94 62 -147 50 -28 -6
-36 -2 -69 32 -45 48 -89 166 -70 189 16 20 38 17 95 -11z m-743 -129 c70
-140 86 -199 56 -219 -9 -5 -24 -7 -34 -3 -15 5 -17 14 -12 50 8 59 -5 68 -95
68 -79 -1 -125 -13 -144 -40 -18 -26 -97 -62 -140 -64 -48 -2 -84 36 -84 88 0
48 13 68 66 105 43 29 287 146 309 148 6 1 41 -59 78 -133z m-797 78 c7 -9 10
-39 6 -80 -5 -63 -4 -66 29 -100 38 -39 35 -40 -76 -19 -130 25 -138 37 -107
150 14 48 22 60 42 66 34 9 93 0 106 -17z m1023 -60 c25 -32 27 -52 4 -61 -23
-9 -63 40 -63 78 0 26 2 28 19 19 11 -5 29 -22 40 -36z m-2589 -42 c0 -12 -56
-62 -118 -106 -72 -52 -104 -96 -100 -138 5 -52 32 -47 139 23 52 34 115 71
142 81 44 17 167 26 167 12 0 -11 -146 -228 -172 -255 l-25 -27 -124 30 c-194
46 -259 83 -259 150 0 61 156 184 284 224 49 15 66 17 66 6z m1795 -178 c9 -9
14 -23 11 -31 -3 -8 -6 -19 -6 -24 0 -17 -29 -9 -44 13 -34 48 -1 82 39 42z
m1235 -64 c41 -21 54 -50 23 -50 -27 0 -83 38 -83 55 0 20 13 19 60 -5z
m-1543 -60 c213 -109 281 -192 262 -318 -7 -52 -44 -96 -59 -72 -5 8 -10 29
-10 47 0 54 -46 94 -184 161 -134 65 -166 91 -166 134 0 40 26 98 44 98 8 0
59 -23 113 -50z m770 -20 c100 -13 123 -19 123 -28 0 -12 -146 -92 -179 -98
-17 -4 -41 1 -59 10 -43 22 -102 75 -102 92 0 34 74 42 217 24z m-2702 -62
c-28 -87 -88 -189 -209 -358 -134 -187 -185 -286 -260 -503 -31 -87 -66 -178
-80 -201 -43 -74 -125 -137 -300 -231 -101 -55 -130 -59 -92 -14 38 45 53 78
61 132 8 53 36 87 70 87 28 0 51 26 60 67 7 37 19 49 60 59 17 3 40 16 53 27
28 26 52 104 52 171 1 80 14 118 57 161 22 22 74 102 117 178 83 147 167 266
238 334 49 47 181 151 187 147 1 -1 -5 -27 -14 -56z m4450 22 c0 -25 -121 -77
-290 -125 -158 -45 -205 -51 -212 -28 -7 20 105 69 278 122 166 51 224 59 224
31z m-1051 -65 c37 -16 116 -85 116 -102 0 -6 -17 -9 -43 -6 -42 5 -77 -12
-77 -37 0 -19 33 -39 87 -55 103 -30 163 -87 163 -157 0 -21 -4 -38 -9 -38 -4
0 -29 27 -55 60 -26 33 -57 65 -68 71 -15 8 -53 9 -119 5 -93 -7 -98 -6 -127
19 -40 33 -67 32 -132 -7 -89 -54 -91 -63 -90 -305 0 -114 5 -280 10 -368 5
-88 10 -171 10 -185 l0 -25 172 6 c223 8 323 38 410 123 62 60 70 144 32 326
-22 105 -18 176 16 273 16 47 33 112 36 144 8 70 19 93 43 93 54 0 70 -60 121
-465 22 -176 48 -359 57 -407 19 -101 17 -106 -56 -143 -70 -35 -275 -101
-392 -126 -83 -19 -137 -23 -269 -24 -245 0 -253 6 -255 215 -2 176 -45 371
-119 548 -23 54 -27 78 -27 163 -1 164 36 234 169 323 146 97 288 126 396 81z
m-1833 -10 c44 -23 38 -55 -17 -100 -57 -47 -90 -97 -104 -157 -8 -40 -7 -57
11 -113 12 -36 20 -68 17 -71 -3 -2 -25 0 -49 5 -59 14 -146 14 -155 0 -21
-34 -163 -65 -179 -39 -3 5 15 24 41 42 102 71 130 96 159 142 40 66 39 115
-4 160 -17 17 -31 39 -31 48 0 34 71 81 155 102 33 8 125 -3 156 -19z m3009
-20 c0 -28 -27 -46 -58 -38 -27 7 -27 11 0 40 29 31 58 30 58 -2z m-4214 -20
c17 -13 15 -14 -33 -15 -49 0 -63 7 -46 23 12 12 59 7 79 -8z m1516 -72 c20
-18 38 -94 38 -161 1 -63 31 -129 67 -143 33 -12 93 1 163 36 49 25 110 86
110 109 0 8 14 19 31 25 40 14 164 14 190 1 19 -11 26 -51 13 -85 -10 -24 -58
-45 -106 -45 -68 0 -114 -18 -165 -62 -86 -74 -246 -169 -347 -204 -46 -17
-83 -7 -105 27 -18 29 -2 41 39 29 19 -6 49 -10 67 -10 26 0 34 5 39 25 14 57
-21 136 -79 179 -20 15 -47 21 -100 24 -40 2 -78 9 -84 14 -32 25 -2 106 69
191 60 72 115 89 160 50z m2810 -50 c22 -20 24 -63 3 -63 -18 0 -95 79 -95 98
0 15 63 -9 92 -35z m-4065 21 l105 -17 -5 -211 c-6 -234 -18 -300 -64 -348
-36 -38 -97 -73 -151 -88 -54 -14 -72 -2 -72 46 0 53 -17 86 -67 130 l-47 42
18 27 c24 36 91 64 179 74 86 10 115 23 123 55 12 48 -56 145 -128 182 -55 28
-90 13 -193 -87 -50 -49 -99 -89 -108 -89 -22 0 -50 56 -50 100 0 69 62 153
138 186 42 18 195 17 322 -2z m3906 -31 c254 -288 401 -518 471 -736 54 -168
44 -210 -65 -265 -86 -43 -181 -62 -322 -62 -127 0 -468 27 -478 38 -4 4 -14
77 -23 162 -29 269 -77 617 -96 697 -22 92 -17 103 46 103 53 0 56 -11 9 -40
-19 -12 -35 -26 -35 -31 0 -5 20 -9 46 -9 38 0 50 5 77 34 18 19 43 40 57 47
26 13 259 98 273 98 4 1 22 -15 40 -36z m-3439 21 c24 -9 19 -31 -9 -50 -43
-28 -75 4 -39 40 17 18 24 19 48 10z m2150 -180 c28 -11 6 -24 -40 -24 -32 0
-44 4 -44 15 0 16 52 21 84 9z m207 -91 c52 -55 69 -84 69 -117 l0 -30 -60 59
c-60 60 -96 117 -85 135 9 14 33 -1 76 -47z m-3524 0 c5 -14 -56 -55 -69 -47
-10 6 -11 48 -1 58 11 11 66 2 70 -11z m3343 -65 c28 -46 25 -102 -10 -211
-40 -126 -80 -163 -80 -74 0 54 51 317 62 317 4 0 17 -15 28 -32z m-2120 -103
c7 -8 10 -22 6 -30 -15 -40 -106 -44 -106 -5 0 40 74 66 100 35z m2240 -30 c0
-41 -9 -67 -21 -59 -10 6 -12 87 -3 97 13 13 24 -5 24 -38z m-1891 -9 c9 -10
10 -43 5 -114 -7 -102 3 -159 31 -182 18 -15 37 -4 117 65 79 70 162 112 236
120 74 8 110 22 118 47 6 19 12 20 104 13 93 -7 102 -6 157 19 73 34 125 41
195 27 65 -14 87 -34 86 -79 -2 -58 13 -60 101 -14 92 48 126 53 134 20 19
-79 57 -437 57 -531 0 -84 -19 -109 -103 -136 -84 -27 -123 -34 -147 -26 -33
10 -23 24 33 49 68 30 100 76 95 137 -3 38 -6 43 -38 53 -29 9 -36 16 -38 43
-4 40 19 85 58 113 16 12 30 28 30 36 0 10 -72 50 -196 111 -230 113 -255 117
-364 66 -122 -56 -150 -114 -80 -161 31 -22 42 -23 107 -18 l72 6 11 -35 c17
-51 -1 -102 -54 -154 -25 -24 -42 -50 -39 -57 7 -18 -152 -176 -205 -203 -34
-17 -52 -20 -95 -15 -42 5 -64 2 -100 -14 -86 -38 -68 -88 26 -76 41 6 53 3
80 -17 28 -21 42 -24 107 -22 69 1 73 0 50 -12 -56 -31 -173 -49 -328 -49
-176 -1 -174 -2 -165 85 6 61 0 69 -77 111 -79 44 5 80 224 96 123 9 145 14
201 41 76 38 140 98 166 157 24 52 18 85 -21 118 -41 34 -103 40 -211 20 -192
-35 -308 -5 -361 93 -40 74 -91 231 -84 259 6 21 12 24 50 24 25 0 48 -6 55
-14z m-1655 -33 c8 -9 -84 -103 -101 -103 -18 0 3 53 34 84 25 25 53 33 67 19z
m1042 -49 c7 -28 -1 -357 -15 -596 -6 -98 -12 -144 -24 -161 -18 -28 -67 -39
-100 -22 -21 10 -22 15 -22 170 0 244 -7 252 -295 300 -80 13 -159 29 -174 35
-43 16 -73 12 -117 -16 -58 -36 -120 -105 -160 -175 -19 -33 -52 -89 -74 -122
-34 -53 -44 -62 -70 -62 -25 0 -33 6 -48 40 -39 87 -41 90 -82 96 -41 7 -100
59 -92 82 2 7 50 17 123 24 65 6 120 12 121 12 8 4 33 34 33 41 0 5 -19 28
-42 51 l-42 41 23 19 c29 24 48 24 106 -1 75 -32 75 -32 75 70 0 83 2 93 25
115 13 14 29 25 35 25 30 0 71 -35 109 -94 52 -79 71 -93 142 -99 30 -3 73
-11 96 -18 39 -12 46 -11 94 12 42 19 65 23 113 20 34 -2 79 -4 101 -5 l40 -1
8 55 c13 88 26 127 53 160 32 37 52 38 60 4z m4454 -402 c0 -41 -89 -132 -129
-132 -35 0 17 84 78 126 42 29 51 30 51 6z m-4962 -94 c89 -31 138 -75 146
-131 4 -25 20 -65 36 -91 17 -26 30 -51 30 -56 0 -17 -147 -16 -164 1 -6 6 -4
27 7 56 9 27 17 60 17 75 0 55 -73 108 -148 108 -40 0 -68 -39 -76 -106 -8
-75 -27 -104 -66 -104 -69 0 -73 77 -9 173 67 101 111 116 227 75z m-845 -51
c65 -42 79 -197 17 -197 -26 0 -33 15 -20 41 18 33 2 35 -31 3 -39 -37 -62
-80 -54 -103 8 -26 -47 -128 -106 -194 -28 -32 -53 -56 -56 -53 -2 2 10 37 27
76 48 109 22 107 -53 -5 -61 -91 -108 -145 -124 -145 -19 0 -126 76 -177 126
-48 47 -71 97 -56 124 13 25 41 40 74 40 34 0 82 43 117 106 90 158 328 256
442 181z m1877 18 c0 -35 -97 -92 -118 -70 -10 10 77 85 99 85 11 0 19 -7 19
-15z m3014 -61 c32 -12 15 -24 -34 -24 -46 0 -60 7 -43 23 8 9 56 9 77 1z
m445 -27 c27 -70 120 -271 154 -332 22 -38 56 -90 76 -115 68 -82 76 -99 59
-117 -31 -30 -264 -84 -449 -103 -63 -7 -186 -10 -272 -8 -177 3 -195 10 -182
67 12 56 37 64 234 70 207 8 212 10 284 119 55 84 69 120 65 163 -5 55 -45 69
-204 69 -103 0 -134 3 -144 15 -17 21 20 55 111 101 83 42 215 93 242 94 10 0
21 -10 26 -23z m-944 -29 c24 -22 26 -31 36 -163 14 -195 24 -254 70 -384 21
-63 36 -118 32 -122 -17 -15 -802 -99 -1460 -156 -377 -32 -376 -32 -381 41
-4 65 15 86 80 86 47 0 55 -4 95 -54 30 -36 247 -29 385 14 69 21 137 65 169
110 11 14 23 49 29 79 9 50 32 91 51 91 14 0 29 -63 29 -124 0 -84 16 -134 45
-148 32 -14 72 11 80 50 11 52 18 57 93 63 84 6 107 22 154 111 48 90 56 94
155 87 55 -4 84 23 155 143 29 48 55 88 59 88 4 0 -4 -37 -17 -82 -14 -46 -27
-109 -31 -142 -6 -53 -5 -58 13 -54 41 7 105 175 120 314 14 129 -38 138 -185
33 -30 -22 -58 -39 -62 -39 -4 0 -5 16 -2 35 7 44 -10 65 -53 65 -18 0 -36 5
-39 10 -16 26 152 68 277 69 66 1 80 -2 103 -21z m-1008 -73 c70 -29 108 -85
123 -182 9 -53 1 -125 -15 -141 -13 -13 -45 41 -45 77 -1 46 -15 110 -29 124
-14 14 -63 -7 -90 -39 -33 -37 -85 -55 -186 -64 -120 -10 -168 -25 -211 -62
-51 -45 -66 -81 -65 -156 0 -36 -4 -71 -10 -79 -18 -21 -83 -16 -105 8 -16 18
-19 37 -19 138 0 105 2 120 25 159 36 63 86 89 200 102 96 12 171 38 231 81
33 24 100 47 137 48 12 1 39 -6 59 -14z m-1709 -61 c12 -14 22 -30 22 -35 0
-33 -83 -6 -95 31 -15 47 31 49 73 4z m-1345 2 c130 -25 151 -44 148 -137 -1
-74 -18 -137 -61 -224 -86 -177 -191 -245 -336 -215 -88 18 -143 37 -209 74
-55 31 -60 36 -58 65 2 51 194 359 264 424 26 24 36 27 103 27 41 0 108 -6
149 -14z m5688 -33 c-19 -36 -121 -116 -121 -96 0 13 106 113 120 113 7 0 8
-6 1 -17z m-1450 -95 c7 -26 9 -76 6 -126 -10 -144 -30 -133 -46 24 -6 55 -8
109 -4 122 9 36 31 25 44 -20z m-3407 11 c121 -13 193 -36 218 -69 31 -42 48
-153 48 -315 0 -151 -11 -225 -33 -225 -7 0 -64 7 -127 15 -362 45 -664 101
-788 147 -45 17 -51 22 -41 35 21 25 88 54 162 69 78 17 122 11 137 -16 14
-26 92 -40 218 -39 123 1 195 16 200 41 3 18 -19 31 -69 42 -37 8 -41 35 -23
141 15 85 14 90 -3 103 -10 7 -27 10 -38 7 -37 -10 -192 -18 -219 -11 -14 3
-26 13 -26 21 0 20 -33 27 -93 20 -56 -6 -90 6 -70 26 28 28 313 32 547 8z
m3966 11 c12 -7 6 -18 -34 -55 -27 -25 -57 -44 -65 -43 -24 5 -25 51 -1 81 22
28 70 36 100 17z m-3347 -60 c78 -11 248 -25 377 -31 256 -11 313 -19 348 -51
35 -34 43 -79 49 -285 l6 -193 -244 0 -244 1 127 65 c186 97 238 153 208 224
-25 60 -89 48 -176 -32 l-46 -43 -19 24 c-12 14 -19 39 -19 63 0 35 6 46 56
94 64 61 59 71 -26 61 -60 -7 -115 -35 -185 -92 -61 -49 -92 -62 -109 -45 -8
9 -4 17 19 35 65 52 67 55 54 71 -27 32 -132 -2 -203 -66 -60 -55 -86 -70
-119 -70 -13 0 -26 -3 -30 -6 -17 -17 75 -143 127 -175 17 -10 47 -19 67 -19
43 0 85 -29 76 -53 -10 -26 -74 -37 -220 -37 l-137 0 5 83 c8 114 25 456 25
488 0 26 1 26 46 18 25 -5 109 -18 187 -29z m4347 -39 c0 -30 -93 -106 -165
-135 -87 -35 -166 -44 -185 -22 -11 15 -11 20 7 37 16 17 33 21 83 20 72 0 80
4 169 71 69 52 91 59 91 29z m-2903 -77 c7 -19 -33 -55 -57 -51 -19 3 -25 34
-10 52 17 20 59 19 67 -1z m-4899 -180 c39 -27 27 -36 -37 -29 -35 4 -67 3
-78 -3 -11 -6 -35 -41 -54 -79 l-34 -68 -3 48 c-6 85 54 146 143 147 22 0 51
-7 63 -16z m5032 -4 c0 -21 -30 -70 -49 -80 -22 -11 -61 -14 -61 -4 0 14 42
74 58 84 23 13 52 13 52 0z m-1556 -66 c30 -12 16 -24 -28 -24 -43 0 -63 10
-49 24 8 8 56 8 77 0z m-3354 -48 c0 -20 -48 -56 -66 -49 -17 6 -18 35 -2 51
17 17 68 15 68 -2z m3620 -41 c18 -21 -31 -67 -68 -63 -34 4 -44 45 -16 65 24
17 69 17 84 -2z m1600 -465 c10 -7 -28 -10 -115 -9 -82 0 -123 4 -110 9 28 12
207 12 225 0z m1870 -145 c0 -25 -40 -96 -50 -90 -15 9 -12 58 6 83 17 25 44
29 44 7z m1084 -61 c30 -12 5 -24 -49 -24 -53 0 -82 14 -48 23 28 7 80 8 97 1z"/>
<path d="M7999 4440 c-96 -16 -149 -68 -149 -145 0 -85 81 -308 132 -362 39
-42 80 -22 133 61 l18 30 9 -23 c12 -32 -20 -99 -76 -159 -57 -61 -70 -92 -50
-121 23 -32 52 -26 125 25 74 51 122 60 146 28 12 -15 13 -38 9 -106 -4 -49
-4 -88 -1 -88 24 0 184 98 242 148 44 38 73 93 73 138 0 42 -19 74 -43 74 -7
0 -44 -35 -84 -77 l-72 -77 -21 46 c-15 35 -22 82 -30 207 -11 181 -27 253
-73 313 -69 90 -143 112 -288 88z m210 -246 c24 -30 27 -54 9 -72 -28 -28 -68
2 -68 52 0 54 26 62 59 20z"/>
<path d="M2963 3401 c-85 -40 -177 -146 -171 -198 5 -49 41 -51 163 -12 104
33 108 35 126 74 10 22 28 56 39 75 17 29 18 37 6 55 -19 29 -106 32 -163 6z"/>
<path d="M3574 3187 c-16 -18 -65 -81 -109 -140 -44 -60 -81 -102 -83 -94 -2
7 1 40 6 73 11 66 3 99 -26 108 -74 24 -169 -124 -143 -220 15 -54 67 -104
107 -104 54 0 81 16 175 107 92 89 149 169 149 211 0 29 -26 92 -38 92 -6 0
-23 -15 -38 -33z"/>
<path d="M4549 3013 c-31 -83 -34 -328 -5 -369 13 -16 14 -16 26 6 11 21 18
87 31 312 4 70 -31 105 -52 51z"/>
<path d="M11630 5145 c0 -11 12 -15 44 -15 49 0 69 14 33 24 -41 11 -77 7 -77
-9z"/>
<path d="M12003 4693 c-49 -10 -19 -23 54 -23 51 0 74 3 67 10 -12 12 -89 20
-121 13z"/>
<path d="M12260 4641 c25 -15 330 -51 420 -50 l85 1 -50 14 c-117 33 -502 62
-455 35z"/>
<path d="M11905 4430 c-4 -6 38 -10 120 -10 82 0 124 4 120 10 -4 6 -55 10
-120 10 -65 0 -116 -4 -120 -10z"/>
<path d="M12455 4430 c-4 -6 42 -10 130 -10 88 0 134 4 130 10 -4 6 -58 10
-130 10 -72 0 -126 -4 -130 -10z"/>
<path d="M11650 4376 c16 -21 93 -44 172 -51 77 -8 180 3 156 16 -20 11 -252
49 -302 49 -32 0 -37 -2 -26 -14z"/>
<path d="M12685 4313 c-49 -12 -35 -23 30 -23 41 0 65 4 60 9 -13 12 -65 20
-90 14z"/>
<path d="M12530 4050 c-10 -7 22 -10 100 -10 78 0 110 3 100 10 -8 5 -53 10
-100 10 -47 0 -92 -5 -100 -10z"/>
<path d="M11660 4010 c-52 -3 -90 -7 -85 -8 40 -8 488 -43 611 -48 148 -7 204
-3 204 15 0 40 -405 62 -730 41z"/>
<path d="M12622 3671 c-17 -10 17 -21 70 -21 48 0 75 10 56 21 -17 11 -109 11
-126 0z"/>
<path d="M12285 3657 c-16 -12 -17 -17 -7 -30 26 -31 244 -33 244 -2 0 31
-201 59 -237 32z"/>
<path d="M11215 3411 l-50 -6 70 -8 c280 -28 1291 -45 1315 -21 15 15 -42 22
-267 34 -192 10 -986 11 -1068 1z"/>
<path d="M10770 3151 c-67 -4 -96 -9 -80 -13 55 -16 331 -30 1259 -64 320 -11
436 -13 445 -4 16 16 -6 27 -73 34 -125 14 -594 35 -876 41 -165 3 -361 7
-435 8 -74 2 -182 1 -240 -2z"/>
<path d="M12520 3042 c0 -5 12 -14 26 -21 14 -6 24 -17 22 -24 -3 -10 -63 -53
-144 -104 -21 -13 97 18 164 43 53 20 54 41 7 83 -33 29 -75 42 -75 23z"/>
<path d="M12067 2920 c-84 -15 -127 -60 -56 -60 56 0 240 44 228 54 -10 9
-130 13 -172 6z"/>
<path d="M10640 2860 c113 -5 333 -14 490 -20 442 -17 714 -44 756 -75 22 -16
12 -31 -38 -56 -22 -11 -37 -23 -34 -26 3 -3 34 -2 68 1 151 16 206 115 65
116 -36 0 -51 8 -59 31 -4 10 -23 19 -50 24 -24 3 -349 8 -723 10 -464 2 -615
0 -475 -5z"/>
<path d="M9699 2730 c-125 -23 -209 -48 -209 -61 0 -22 323 31 401 65 l34 14
-65 0 c-36 0 -108 -8 -161 -18z"/>
<path d="M9226 2659 c-24 -14 -4 -29 39 -29 46 0 61 14 30 28 -32 15 -44 15
-69 1z"/>
<path d="M10425 2639 c-410 -10 -569 -19 -510 -30 82 -14 820 -49 1063 -49
123 0 161 12 77 24 -25 4 -45 11 -45 15 0 9 45 16 204 31 54 5 101 11 104 14
7 8 -465 5 -893 -5z"/>
<path d="M9265 2586 c-98 -31 -110 -62 -19 -53 58 6 144 40 144 56 0 15 -75
13 -125 -3z"/>
<path d="M9521 2583 c-92 -22 -65 -36 62 -31 69 2 111 7 119 16 33 33 -69 42
-181 15z"/>
<path d="M11260 2533 c0 -5 25 -17 55 -27 30 -9 55 -21 55 -26 0 -12 -11 -15
-240 -51 -271 -42 -268 -46 23 -29 209 13 359 29 371 40 18 17 -4 56 -41 75
-42 20 -223 35 -223 18z"/>
<path d="M9690 2491 c-33 -6 -34 -7 -10 -14 31 -9 177 -7 210 2 56 16 -121 26
-200 12z"/>
<path d="M4815 2361 c-31 -13 64 -25 123 -16 37 6 43 9 27 16 -11 4 -45 8 -75
8 -30 0 -64 -4 -75 -8z"/>
<path d="M4610 2321 c-21 -15 -4 -26 40 -26 38 0 59 9 48 20 -11 11 -73 15
-88 6z"/>
<path d="M7443 2310 c-40 -13 -47 -24 -26 -41 22 -19 216 -20 235 -1 10 10 9
15 -4 29 -20 20 -155 28 -205 13z"/>
<path d="M6255 2283 c-49 -12 -35 -23 30 -23 41 0 65 4 60 9 -13 12 -65 20
-90 14z"/>
<path d="M6130 2190 c-10 -7 19 -10 90 -9 68 0 98 3 85 9 -28 12 -157 12 -175
0z"/>
<path d="M5463 2180 c-49 -20 -9 -44 90 -56 69 -8 174 3 160 17 -10 10 -184
49 -213 48 -8 0 -25 -4 -37 -9z"/>
<path d="M5037 2153 c-17 -16 -3 -23 46 -23 48 1 50 2 33 15 -20 15 -67 20
-79 8z"/>
<path d="M7467 2153 c-9 -2 -15 -9 -12 -14 8 -12 145 -12 145 0 0 16 -88 26
-133 14z"/>
<path d="M4853 2113 c-45 -9 -22 -23 37 -23 64 0 80 13 29 24 -17 3 -34 5 -38
5 -3 -1 -16 -4 -28 -6z"/>
<path d="M11300 2053 c0 -3 19 -23 41 -44 28 -26 40 -44 37 -56 -5 -17 0 -18
56 -10 34 5 72 13 85 18 l24 10 -24 25 c-13 13 -46 31 -74 38 -60 17 -145 28
-145 19z"/>
<path d="M3298 1986 c-76 -7 -141 -16 -145 -20 -11 -11 608 -3 626 8 30 19
-19 26 -179 25 -91 -1 -227 -7 -302 -13z"/>
<path d="M3487 1903 c-72 -8 -25 -23 71 -23 55 0 92 4 87 9 -12 10 -107 19
-158 14z"/>
<path d="M11549 1890 l-24 -20 24 -20 c33 -28 111 -28 137 1 19 21 18 21 -5
40 -32 26 -101 25 -132 -1z"/>
<path d="M2367 1854 c-14 -14 6 -24 49 -24 44 0 58 12 28 24 -21 8 -69 8 -77
0z"/>
<path d="M3010 1850 c-10 -7 21 -10 98 -10 73 0 111 4 107 10 -8 13 -185 13
-205 0z"/>
<path d="M11745 1855 c22 -9 443 -69 693 -99 263 -32 266 -33 187 -39 -44 -4
-206 -12 -360 -18 -543 -21 -553 -24 -130 -31 501 -9 665 2 665 42 0 44 -239
102 -547 135 -119 13 -537 20 -508 10z"/>
<path d="M2073 1780 c-135 -21 -137 -36 -7 -45 104 -8 1069 1 1147 11 62 8 60
21 -5 28 -85 10 -1078 15 -1135 6z"/>
<path d="M11545 1680 c-3 -5 0 -13 8 -16 23 -8 82 0 82 11 0 14 -82 19 -90 5z"/>
<path d="M10300 1640 c0 -6 130 -10 369 -10 236 0 372 4 376 10 4 7 -122 10
-369 10 -244 0 -376 -4 -376 -10z"/>
<path d="M9745 1594 c-38 -11 -37 -23 1 -32 62 -16 125 -22 351 -31 160 -7
220 -13 244 -25 46 -23 58 -19 26 9 -34 30 -77 42 -215 60 -117 16 -375 27
-407 19z"/>
<path d="M63 1533 c-35 -2 -63 -8 -63 -13 0 -4 21 -17 47 -27 57 -21 195 -23
1193 -10 706 9 929 16 840 28 -151 21 -1735 38 -2017 22z"/>
<path d="M10520 1510 c20 -13 280 -13 280 0 0 6 -56 10 -147 10 -99 0 -143 -3
-133 -10z"/>
<path d="M11096 1471 c-9 -14 51 -24 102 -16 32 5 41 9 31 16 -18 12 -126 12
-133 0z"/>
<path d="M1476 1431 c-18 -7 -18 -8 5 -14 32 -9 119 -8 144 2 16 7 14 9 -14
14 -43 9 -111 8 -135 -2z"/>
<path d="M2411 1386 c-9 -11 -6 -15 14 -20 28 -7 75 2 75 14 0 20 -73 25 -89
6z"/>
<path d="M11492 1371 c-32 -35 -96 -53 -267 -76 -134 -17 -553 -57 -804 -76
-90 -7 -159 -15 -153 -17 15 -5 740 25 917 39 280 20 416 55 423 107 8 58 -70
73 -116 23z"/>
<path d="M2025 1260 c-28 -5 -6 -8 75 -9 171 -2 787 -29 927 -41 144 -12 206
-24 248 -50 18 -11 67 -23 125 -30 143 -17 878 -25 1120 -11 221 12 370 29
370 42 0 13 -207 15 -710 6 -533 -9 -758 -1 -880 33 -146 40 -210 50 -386 60
-201 11 -827 11 -889 0z"/>
<path d="M9143 1223 c-38 -15 18 -38 64 -27 25 7 25 8 8 20 -19 14 -49 17 -72
7z"/>
<path d="M9455 1181 l-90 -3 160 -29 c194 -34 258 -37 253 -11 -7 35 -128 51
-323 43z"/>
<path d="M9956 1089 c3 -6 35 -24 71 -40 35 -16 62 -33 58 -39 -3 -5 -29 -20
-56 -31 -60 -26 -50 -39 29 -39 53 0 122 21 122 38 0 39 -134 122 -197 122
-22 0 -32 -4 -27 -11z"/>
<path d="M9110 960 c0 -6 52 -10 135 -10 83 0 135 4 135 10 0 6 -52 10 -135
10 -83 0 -135 -4 -135 -10z"/>
<path d="M9620 960 c0 -6 47 -10 120 -10 73 0 120 4 120 10 0 6 -47 10 -120
10 -73 0 -120 -4 -120 -10z"/>
<path d="M8575 914 c-22 -2 -116 -8 -210 -14 -261 -17 -438 -41 -451 -61 -5
-9 10 -14 93 -30 35 -6 61 -15 58 -19 -3 -4 -82 -11 -177 -14 -197 -8 -332
-22 -361 -38 -44 -23 13 -32 198 -31 226 2 550 35 725 74 3 1 -53 13 -125 28
-150 32 -151 31 108 50 158 12 331 37 356 51 15 9 -117 11 -214 4z"/>
<path d="M7120 729 c-58 -4 -170 -12 -249 -18 -79 -6 -277 -16 -440 -21 -305
-10 -372 -15 -405 -33 -19 -9 -19 -10 3 -28 29 -24 113 -25 331 -4 85 8 263
21 395 30 408 27 591 45 635 62 19 8 -61 22 -120 21 -25 -1 -92 -4 -150 -9z"/>
</g>
</svg>
